<svg width="94" height="94" viewBox="0 0 94 94" fill="none" xmlns="http://www.w3.org/2000/svg">
<path d="M46.124 1.92761C46.7428 1.57034 47.5052 1.57034 48.124 1.92761L85.6578 23.5978C86.2766 23.955 86.6578 24.6153 86.6578 25.3298V68.6702C86.6578 69.3847 86.2766 70.0449 85.6578 70.4022L48.124 92.0724C47.5052 92.4296 46.7428 92.4296 46.124 92.0724L8.59019 70.4022C7.97138 70.0449 7.59019 69.3847 7.59019 68.6702V25.3298C7.59019 24.6153 7.97139 23.955 8.59019 23.5978L46.124 1.92761Z" fill="white" stroke="#222222" stroke-width="2"/>
<mask id="mask0" mask-type="alpha" maskUnits="userSpaceOnUse" x="6" y="0" width="82" height="94">
<path d="M46.124 1.92761C46.7428 1.57034 47.5052 1.57034 48.124 1.92761L85.6578 23.5978C86.2766 23.955 86.6578 24.6153 86.6578 25.3298V68.6702C86.6578 69.3847 86.2766 70.0449 85.6578 70.4022L48.124 92.0724C47.5052 92.4296 46.7428 92.4296 46.124 92.0724L8.59019 70.4022C7.97138 70.0449 7.59019 69.3847 7.59019 68.6702V25.3298C7.59019 24.6153 7.97139 23.955 8.59019 23.5978L46.124 1.92761Z" fill="white" stroke="#222222" stroke-width="2"/>
</mask>
<g mask="url(#mask0)">
<path d="M47.1246 0.195557L47.1245 47.155L6.40354 70.8708L6.40361 23.9113L47.1246 0.195557Z" stroke="#222222" stroke-width="3" stroke-linecap="round" stroke-dasharray="0.1 9"/>
<path d="M87.9701 70.8347L47.302 47.3548L47.124 0.231569L87.7921 23.7114L87.9701 70.8347Z" stroke="#222222" stroke-width="3" stroke-linecap="round" stroke-dasharray="0.1 9"/>
</g>
<path d="M64.4075 36.3372C65.0054 36.6896 65.3743 37.3197 65.3806 37.9994L65.5549 56.7528C65.5614 57.4552 65.1798 58.1032 64.5566 58.448L48.3466 67.4165C47.7234 67.7613 46.9554 67.7493 46.3375 67.3852L29.8403 57.6627C29.2425 57.3103 28.8735 56.6801 28.8672 56.0005L28.6929 37.2471C28.6864 36.5447 29.068 35.8967 29.6912 35.5519L45.9013 26.5834C46.5245 26.2386 47.2924 26.2505 47.9103 26.6147L64.4075 36.3372Z" fill="white" stroke="#222222" stroke-width="2"/>
<mask id="mask1" mask-type="alpha" maskUnits="userSpaceOnUse" x="27" y="25" width="40" height="44">
<path d="M64.3152 36.4381C64.9041 36.7885 65.2685 37.4083 65.2792 38.0775L65.5787 56.8867C65.5899 57.5904 65.2085 58.2409 64.5824 58.586L48.5019 67.4502C47.8758 67.7954 47.1034 67.7809 46.4842 67.4123L29.9329 57.5618C29.3441 57.2113 28.9796 56.5915 28.969 55.9223L28.6695 37.1131C28.6583 36.4094 29.0397 35.7589 29.6658 35.4138L45.7463 26.5496C46.3724 26.2044 47.1448 26.2189 47.764 26.5875L64.3152 36.4381Z" fill="white" stroke="#222222" stroke-width="2"/>
</mask>
<g mask="url(#mask1)">
<path d="M67.183 35.5729L47.6769 47.3671L27.733 35.5729L47.2086 24.8195L67.183 35.5729Z" stroke="#222222" stroke-width="2"/>
<path d="M47.9078 68.0727L47.609 46.8183L65.3994 36.6042L65.6982 57.8586L47.9078 68.0727Z" stroke="#222222" stroke-width="2"/>
</g>
</svg>
