<svg width="100" height="116" viewBox="0 0 100 116" fill="none" xmlns="http://www.w3.org/2000/svg">
<mask id="mask0" mask-type="alpha" maskUnits="userSpaceOnUse" x="0" y="0" width="94" height="116">
<path d="M0.29834 0.605713H93.2479V53.7045H69.6319V63.0001H55.3374L69.6319 115.394H0.29834V0.605713Z" fill="#C4C4C4"/>
</mask>
<g mask="url(#mask0)">
<mask id="mask1" mask-type="alpha" maskUnits="userSpaceOnUse" x="37" y="10" width="56" height="101">
<path d="M37.043 30.3468L60.0768 10.1102L92.1474 10.1104V110.393H37.043L37.043 30.3468Z" fill="#C4C4C4"/>
</mask>
<g mask="url(#mask1)">
<circle cx="41.1652" cy="59.1106" r="47.9801" fill="white" stroke="#222222" stroke-width="2.5" stroke-linecap="round" stroke-linejoin="round" stroke-dasharray="0.1 20"/>
</g>
<circle cx="41.043" cy="59.1102" r="39" fill="white" stroke="#222222" stroke-width="2"/>
<rect x="39.043" y="92.1141" width="4" height="6.99607" fill="#222222"/>
<rect x="39.043" y="19.1102" width="4" height="6.99607" fill="#222222"/>
<rect x="1.04297" y="57.1102" width="7" height="4" fill="#222222"/>
<rect x="74.043" y="57.1102" width="7" height="4" fill="#222222"/>
<rect x="63.0342" y="83.8617" width="4" height="6.99607" transform="rotate(-45 63.0342 83.8617)" fill="#222222"/>
<rect x="11.4131" y="32.2401" width="4" height="6.99607" transform="rotate(-45 11.4131 32.2401)" fill="#222222"/>
<rect x="11.4131" y="85.9803" width="7" height="4" transform="rotate(-45 11.4131 85.9803)" fill="#222222"/>
<rect x="63.0317" y="34.3615" width="7" height="4" transform="rotate(-45 63.0317 34.3615)" fill="#222222"/>
<path d="M39.9761 34.1284C54.0926 34.6424 65.4439 45.9937 65.9579 60.1102H39.9761V34.1284Z" fill="white" stroke="#222222" stroke-width="2"/>
<rect x="15.3545" y="20.0475" width="4" height="6.99607" transform="rotate(-30 15.3545 20.0475)" fill="#222222"/>
<rect x="13.1636" y="21.2144" width="9" height="4" transform="rotate(-30 13.1636 21.2144)" fill="#222222"/>
<circle r="4" transform="matrix(1 0 0 -1 41.043 59.1102)" fill="#222222"/>
<rect x="36.043" y="12.1102" width="10" height="8" stroke="#222222" stroke-width="2"/>
<rect x="29.165" y="2.11023" width="24" height="10" rx="1" stroke="#222222" stroke-width="2"/>
</g>
<mask id="path-19-inside-1" fill="white">
<path fill-rule="evenodd" clip-rule="evenodd" d="M65.8267 89.2567C65.8267 82.778 69.3648 75.7247 74.0752 71.4591H91.5781C96.2885 75.7247 99.8267 82.778 99.8267 89.2567C99.8267 95.1102 96.9384 99.4668 92.9069 102.11H72.7464C68.7149 99.4668 65.8267 95.1102 65.8267 89.2567Z"/>
</mask>
<path d="M74.0752 71.4591V69.4591H73.3042L72.7327 69.9766L74.0752 71.4591ZM91.5781 71.4591L92.9206 69.9766L92.3491 69.4591H91.5781V71.4591ZM92.9069 102.11V104.11H93.5042L94.0036 103.783L92.9069 102.11ZM72.7464 102.11L71.6497 103.783L72.1492 104.11H72.7464V102.11ZM72.7327 69.9766C67.6602 74.5702 63.8267 82.1411 63.8267 89.2567H67.8267C67.8267 83.4148 71.0694 76.8793 75.4177 72.9416L72.7327 69.9766ZM91.5781 69.4591H74.0752V73.4591H91.5781V69.4591ZM101.827 89.2567C101.827 82.1411 97.9931 74.5702 92.9206 69.9766L90.2356 72.9416C94.5839 76.8793 97.8267 83.4148 97.8267 89.2567H101.827ZM94.0036 103.783C98.5399 100.808 101.827 95.8518 101.827 89.2567H97.8267C97.8267 94.3685 95.337 98.1253 91.8103 100.438L94.0036 103.783ZM72.7464 104.11H92.9069V100.11H72.7464V104.11ZM63.8267 89.2567C63.8267 95.8518 67.1134 100.808 71.6497 103.783L73.843 100.438C70.3163 98.1253 67.8267 94.3685 67.8267 89.2567H63.8267Z" fill="#222222" mask="url(#path-19-inside-1)"/>
<path d="M76.2216 73.425L72.9387 59.2555C72.9391 59.2534 72.9402 59.249 72.943 59.2424C72.9528 59.2186 72.9796 59.1751 73.0349 59.1294C73.0897 59.084 73.1539 59.0523 73.213 59.0376C73.2703 59.0235 73.308 59.0284 73.3283 59.0345C75.5548 59.7057 79.1457 60.1478 82.916 58.0326C85.0014 56.8627 87.0046 56.9561 88.6835 57.4848C90.3393 58.0062 91.6492 58.9454 92.3032 59.4814L88.6548 73.425H76.2216Z" stroke="#222222" stroke-width="2"/>
<rect x="73.4268" y="66.5269" width="18" height="6.89858" rx="2" fill="white" stroke="#222222" stroke-width="2"/>
<path d="M81.351 90.6702H84.851V91.8902H81.351V94.1102H79.531V91.8902H78.031V90.6702H79.531V89.1902H78.031V87.7902H79.531V80.7302H82.551C84.231 80.7302 85.5243 81.0836 86.431 81.7902C87.3376 82.4836 87.791 83.5169 87.791 84.8902C87.791 86.3569 87.3243 87.4436 86.391 88.1502C85.4576 88.8436 84.1843 89.1902 82.571 89.1902H81.351V90.6702ZM81.351 82.1502V87.7902H82.491C83.5976 87.7902 84.4376 87.5836 85.011 87.1702C85.5976 86.7436 85.891 85.9902 85.891 84.9102C85.891 83.9369 85.5976 83.2369 85.011 82.8102C84.4376 82.3702 83.611 82.1502 82.531 82.1502H81.351Z" fill="#222222"/>
</svg>
