<svg width="100" height="60" viewBox="0 0 100 60" fill="none" xmlns="http://www.w3.org/2000/svg">
<path d="M41.96 24.976L38.904 30.144L42.264 36H40.504L37.624 30.832H36.12V36H34.6V24.976H36.12V29.584H37.64L40.36 24.976H41.96ZM49.6725 34.032C49.6725 34.3733 49.7312 34.6293 49.8485 34.8C49.9658 34.96 50.1418 35.0827 50.3765 35.168L50.0405 36.192C49.6032 36.1387 49.2512 36.016 48.9845 35.824C48.7178 35.632 48.5205 35.3333 48.3925 34.928C47.8272 35.7707 46.9898 36.192 45.8805 36.192C45.0485 36.192 44.3925 35.9573 43.9125 35.488C43.4325 35.0187 43.1925 34.4053 43.1925 33.648C43.1925 32.752 43.5125 32.064 44.1525 31.584C44.8032 31.104 45.7205 30.864 46.9045 30.864H48.2005V30.24C48.2005 29.6427 48.0565 29.216 47.7685 28.96C47.4805 28.704 47.0378 28.576 46.4405 28.576C45.8218 28.576 45.0645 28.7253 44.1685 29.024L43.8005 27.952C44.8458 27.568 45.8165 27.376 46.7125 27.376C47.7045 27.376 48.4458 27.6213 48.9365 28.112C49.4272 28.592 49.6725 29.28 49.6725 30.176V34.032ZM46.2165 35.088C47.0592 35.088 47.7205 34.6507 48.2005 33.776V31.84H47.0965C45.5392 31.84 44.7605 32.416 44.7605 33.568C44.7605 34.0693 44.8832 34.448 45.1285 34.704C45.3738 34.96 45.7365 35.088 46.2165 35.088ZM54.9356 27.376C55.469 27.376 55.965 27.4667 56.4236 27.648C56.893 27.8187 57.2663 28.0747 57.5436 28.416C57.8316 28.7573 57.9756 29.168 57.9756 29.648C57.9756 30.1173 57.837 30.5013 57.5596 30.8C57.293 31.0987 56.8663 31.328 56.2796 31.488C56.9836 31.6053 57.517 31.824 57.8796 32.144C58.2423 32.464 58.4236 32.9227 58.4236 33.52C58.4236 34.3947 58.0823 35.0613 57.3996 35.52C56.7276 35.968 55.869 36.192 54.8236 36.192C53.5543 36.192 52.4716 35.84 51.5756 35.136L52.3436 34.224C52.717 34.4907 53.0903 34.688 53.4636 34.816C53.8476 34.944 54.285 35.008 54.7756 35.008C56.1516 35.008 56.8396 34.5067 56.8396 33.504C56.8396 33.0133 56.6423 32.672 56.2476 32.48C55.8636 32.2773 55.325 32.176 54.6316 32.176H53.5116L53.6076 31.024H54.4716C55.069 31.024 55.549 30.9173 55.9116 30.704C56.2743 30.4907 56.4556 30.16 56.4556 29.712C56.4556 29.296 56.301 28.9973 55.9916 28.816C55.6823 28.624 55.277 28.528 54.7756 28.528C54.3383 28.528 53.949 28.5867 53.6076 28.704C53.277 28.8107 52.941 28.9813 52.5996 29.216L51.8956 28.336C52.3223 28.016 52.781 27.776 53.2716 27.616C53.7623 27.456 54.317 27.376 54.9356 27.376ZM66.5394 34.032C66.5394 34.3733 66.598 34.6293 66.7154 34.8C66.8327 34.96 67.0087 35.0827 67.2434 35.168L66.9074 36.192C66.47 36.1387 66.118 36.016 65.8514 35.824C65.5847 35.632 65.3874 35.3333 65.2594 34.928C64.694 35.7707 63.8567 36.192 62.7474 36.192C61.9154 36.192 61.2594 35.9573 60.7794 35.488C60.2994 35.0187 60.0594 34.4053 60.0594 33.648C60.0594 32.752 60.3794 32.064 61.0194 31.584C61.67 31.104 62.5874 30.864 63.7714 30.864H65.0674V30.24C65.0674 29.6427 64.9234 29.216 64.6354 28.96C64.3474 28.704 63.9047 28.576 63.3074 28.576C62.6887 28.576 61.9314 28.7253 61.0354 29.024L60.6674 27.952C61.7127 27.568 62.6834 27.376 63.5794 27.376C64.5714 27.376 65.3127 27.6213 65.8034 28.112C66.294 28.592 66.5394 29.28 66.5394 30.176V34.032ZM63.0834 35.088C63.926 35.088 64.5874 34.6507 65.0674 33.776V31.84H63.9634C62.406 31.84 61.6274 32.416 61.6274 33.568C61.6274 34.0693 61.75 34.448 61.9954 34.704C62.2407 34.96 62.6034 35.088 63.0834 35.088ZM74.6985 36V32.288H71.1945V36H69.7225V27.568H71.1945V31.104H74.6985V27.568H76.1705V36H74.6985ZM81.9589 30.288C83.2175 30.288 84.1295 30.5333 84.6949 31.024C85.2602 31.5147 85.5429 32.2133 85.5429 33.12C85.5429 34.0693 85.2229 34.7893 84.5829 35.28C83.9535 35.76 83.1695 36 82.2309 36H79.3669V27.568H80.8389V30.288H81.9589ZM82.1029 34.848C82.7002 34.848 83.1589 34.7147 83.4789 34.448C83.8095 34.1813 83.9749 33.7387 83.9749 33.12C83.9749 32.5333 83.8202 32.1013 83.5109 31.824C83.2122 31.5467 82.6895 31.408 81.9429 31.408H80.8389V34.848H82.1029Z" fill="#669A4D"/>
<path d="M21.25 27.7857C21.25 30.2804 19.9455 33.1835 18.4 35.5141C17.6352 36.6672 16.835 37.6445 16.1544 38.3243C15.8128 38.6654 15.5154 38.9175 15.2797 39.0785C15.1304 39.1805 15.0399 39.2222 15 39.2391C14.9601 39.2222 14.8696 39.1805 14.7203 39.0785C14.4846 38.9175 14.1872 38.6654 13.8456 38.3243C13.165 37.6445 12.3648 36.6672 11.6 35.5141C10.0545 33.1835 8.75 30.2804 8.75 27.7857C8.75 24.4741 11.5261 21.75 15 21.75C18.4739 21.75 21.25 24.4741 21.25 27.7857Z" stroke="#669A4D" stroke-width="1.5"/>
<circle cx="15" cy="28" r="2" fill="#669A4D"/>
</svg>
