<svg width="120" height="21" viewBox="0 0 120 21" fill="none" xmlns="http://www.w3.org/2000/svg">
<path d="M10 0.962891L12.6331 7.33877L19.5106 7.87272L14.2604 12.3472L15.8779 19.0531L10 15.4426L4.12215 19.0531L5.73959 12.3472L0.489435 7.87272L7.36692 7.33877L10 0.962891Z" fill="#726A57"/>
<path d="M35 0.962891L37.6331 7.33877L44.5106 7.87272L39.2604 12.3472L40.8779 19.0531L35 15.4426L29.1221 19.0531L30.7396 12.3472L25.4894 7.87272L32.3669 7.33877L35 0.962891Z" fill="#726A57"/>
<path d="M60 0.962891L62.6331 7.33877L69.5106 7.87272L64.2604 12.3472L65.8779 19.0531L60 15.4426L54.1221 19.0531L55.7396 12.3472L50.4894 7.87272L57.3669 7.33877L60 0.962891Z" fill="#726A57"/>
<path d="M85 0.962891L87.6331 7.33877L94.5106 7.87272L89.2604 12.3472L90.8779 19.0531L85 15.4426L79.1221 19.0531L80.7396 12.3472L75.4894 7.87272L82.3669 7.33877L85 0.962891Z" fill="#726A57"/>
<path d="M110 0.962891L112.633 7.33877L119.511 7.87272L114.26 12.3472L115.878 19.0531L110 15.4426L104.122 19.0531L105.74 12.3472L100.489 7.87272L107.367 7.33877L110 0.962891Z" fill="#726A57"/>
</svg>
