<svg width="31" height="30" viewBox="0 0 31 30" fill="none" xmlns="http://www.w3.org/2000/svg">
<rect x="0.5" width="30" height="30" rx="3" fill="white" fill-opacity="0.9"/>
<mask id="path-3-inside-1" fill="white">
<path fill-rule="evenodd" clip-rule="evenodd" d="M15.5 25C13.8333 24.1818 5.5 17.7099 5.5 12.3182C5.5 9.38103 7.92512 7 10.9167 7C12.8465 7 14.5406 7.99084 15.5 9.48262C16.4594 7.99084 18.1535 7 20.0833 7C23.0749 7 25.5 9.38103 25.5 12.3182C25.5 17.7099 17.1667 24.1818 15.5 25Z"/>
</mask>
<path d="M15.5 25L14.839 26.3465L15.5 26.671L16.161 26.3465L15.5 25ZM15.5 9.48262L14.2384 10.294L15.5 12.2556L16.7616 10.294L15.5 9.48262ZM16.161 23.6535C15.8969 23.5239 15.1683 23.0514 14.1669 22.2566C13.1965 21.4864 12.0505 20.4777 10.9586 19.337C9.86243 18.1917 8.85141 16.9452 8.12231 15.7009C7.38483 14.4423 7 13.2952 7 12.3182H4C4 14.0371 4.65684 15.7207 5.53394 17.2176C6.41943 18.7288 7.5959 20.1624 8.79139 21.4114C9.99114 22.6648 11.241 23.7645 12.3019 24.6064C13.3317 25.4237 14.2697 26.067 14.839 26.3465L16.161 23.6535ZM7 12.3182C7 10.2353 8.72748 8.5 10.9167 8.5V5.5C7.12276 5.5 4 8.52678 4 12.3182H7ZM10.9167 8.5C12.3231 8.5 13.5479 9.22031 14.2384 10.294L16.7616 8.67123C15.5333 6.76136 13.3698 5.5 10.9167 5.5V8.5ZM20.0833 5.5C17.6302 5.5 15.4667 6.76136 14.2384 8.67123L16.7616 10.294C17.4521 9.22031 18.6769 8.5 20.0833 8.5V5.5ZM27 12.3182C27 8.52678 23.8772 5.5 20.0833 5.5V8.5C22.2725 8.5 24 10.2353 24 12.3182H27ZM16.161 26.3465C16.7303 26.067 17.6683 25.4237 18.6981 24.6064C19.759 23.7645 21.0089 22.6648 22.2086 21.4114C23.4041 20.1624 24.5806 18.7288 25.4661 17.2176C26.3432 15.7207 27 14.0371 27 12.3182H24C24 13.2952 23.6152 14.4423 22.8777 15.7009C22.1486 16.9452 21.1376 18.1917 20.0414 19.337C18.9495 20.4777 17.8035 21.4864 16.8331 22.2566C15.8317 23.0514 15.1031 23.5239 14.839 23.6535L16.161 26.3465Z" fill="black" fill-opacity="0.3" mask="url(#path-3-inside-1)"/>
</svg>
