<svg width="174" height="16" viewBox="0 0 174 16" fill="none" xmlns="http://www.w3.org/2000/svg">
<path d="M4.78 1.14C6.60667 1.14 8.02667 1.52 9.04 2.28C10.0533 3.04 10.56 4.16667 10.56 5.66C10.56 7.22 10.06 8.4 9.06 9.2C8.07333 9.98667 6.74667 10.38 5.08 10.38H3.58V15H0.3V1.14H4.78ZM4.8 8.02C5.57333 8.02 6.16 7.84 6.56 7.48C6.97333 7.10667 7.18 6.5 7.18 5.66C7.18 4.20667 6.36667 3.48 4.74 3.48H3.58V8.02H4.8ZM24.9722 15H21.7522V9.82C21.7522 7.91333 21.9055 6.09333 22.2122 4.36L18.2322 15H14.2922V1.14H17.5122V6.42C17.5122 7.52667 17.4722 8.44667 17.3922 9.18C17.3122 9.91333 17.1922 10.7667 17.0322 11.74L21.0922 1.14H24.9722V15ZM32.8739 0.799999C34.6206 0.799999 35.9806 1.39333 36.9539 2.58C37.9272 3.76667 38.4139 5.54667 38.4139 7.92C38.4139 10.32 37.9006 12.16 36.8739 13.44C35.8472 14.7067 34.4272 15.34 32.6139 15.34C31.7072 15.34 30.9139 15.2067 30.2339 14.94C29.5539 14.66 28.9472 14.26 28.4139 13.74L29.8739 11.92C30.2872 12.2533 30.6806 12.5 31.0539 12.66C31.4406 12.8067 31.8872 12.88 32.3939 12.88C34.0872 12.88 34.9806 11.6067 35.0739 9.06H30.3939V6.74H35.0739C34.9406 4.36667 34.1272 3.18 32.6339 3.18C32.1406 3.18 31.7006 3.26 31.3139 3.42C30.9272 3.58 30.5206 3.84 30.0939 4.2L28.5339 2.36C29.1606 1.84 29.8072 1.45333 30.4739 1.2C31.1406 0.933332 31.9406 0.799999 32.8739 0.799999ZM52.5036 1.14V15H49.2236V3.62H46.3436L45.8236 8.32C45.6369 9.90667 45.3969 11.16 45.1036 12.08C44.8236 13 44.4036 13.72 43.8436 14.24C43.2836 14.76 42.5036 15.1267 41.5036 15.34L40.7236 13.04C41.2036 12.8533 41.5636 12.5933 41.8036 12.26C42.0436 11.9267 42.2236 11.48 42.3436 10.92C42.4636 10.3467 42.5969 9.42667 42.7436 8.16L43.5836 1.14H52.5036ZM66.5691 1.14L66.2491 3.66H62.8291V15H59.5491V3.66H55.9691V1.14H66.5691ZM74.7867 0.799999C76.7601 0.799999 78.2934 1.43333 79.3867 2.7C80.4934 3.96667 81.0467 5.75333 81.0467 8.06C81.0467 9.56667 80.7934 10.8667 80.2867 11.96C79.7934 13.0533 79.0734 13.8933 78.1267 14.48C77.1934 15.0533 76.0801 15.34 74.7867 15.34C73.4934 15.34 72.3801 15.0533 71.4467 14.48C70.5134 13.9067 69.7934 13.08 69.2867 12C68.7934 10.9067 68.5467 9.59333 68.5467 8.06C68.5467 6.56667 68.7934 5.27333 69.2867 4.18C69.7934 3.08667 70.5134 2.25333 71.4467 1.68C72.3801 1.09333 73.4934 0.799999 74.7867 0.799999ZM74.7867 3.2C73.8401 3.2 73.1334 3.58667 72.6667 4.36C72.2134 5.12 71.9867 6.35333 71.9867 8.06C71.9867 9.76667 72.2201 11.0067 72.6867 11.78C73.1534 12.5533 73.8534 12.94 74.7867 12.94C75.7467 12.94 76.4534 12.56 76.9067 11.8C77.3734 11.0267 77.6067 9.78 77.6067 8.06C77.6067 6.34 77.3734 5.1 76.9067 4.34C76.4401 3.58 75.7334 3.2 74.7867 3.2ZM89.4948 1.14C91.3215 1.14 92.7415 1.52 93.7548 2.28C94.7682 3.04 95.2748 4.16667 95.2748 5.66C95.2748 7.22 94.7748 8.4 93.7748 9.2C92.7882 9.98667 91.4615 10.38 89.7948 10.38H88.2948V15H85.0148V1.14H89.4948ZM89.5148 8.02C90.2882 8.02 90.8748 7.84 91.2748 7.48C91.6882 7.10667 91.8948 6.5 91.8948 5.66C91.8948 4.20667 91.0815 3.48 89.4548 3.48H88.2948V8.02H89.5148ZM104.607 0.799999C106.58 0.799999 108.114 1.43333 109.207 2.7C110.314 3.96667 110.867 5.75333 110.867 8.06C110.867 9.56667 110.614 10.8667 110.107 11.96C109.614 13.0533 108.894 13.8933 107.947 14.48C107.014 15.0533 105.9 15.34 104.607 15.34C103.314 15.34 102.2 15.0533 101.267 14.48C100.334 13.9067 99.6137 13.08 99.107 12C98.6137 10.9067 98.367 9.59333 98.367 8.06C98.367 6.56667 98.6137 5.27333 99.107 4.18C99.6137 3.08667 100.334 2.25333 101.267 1.68C102.2 1.09333 103.314 0.799999 104.607 0.799999ZM104.607 3.2C103.66 3.2 102.954 3.58667 102.487 4.36C102.034 5.12 101.807 6.35333 101.807 8.06C101.807 9.76667 102.04 11.0067 102.507 11.78C102.974 12.5533 103.674 12.94 104.607 12.94C105.567 12.94 106.274 12.56 106.727 11.8C107.194 11.0267 107.427 9.78 107.427 8.06C107.427 6.34 107.194 5.1 106.727 4.34C106.26 3.58 105.554 3.2 104.607 3.2ZM122.215 7.66C123.135 7.83333 123.882 8.17333 124.455 8.68C125.042 9.18667 125.335 9.94667 125.335 10.96C125.335 12.44 124.802 13.4867 123.735 14.1C122.682 14.7 121.202 15 119.295 15H114.835V1.14H118.755C120.702 1.14 122.188 1.42 123.215 1.98C124.242 2.52667 124.755 3.42667 124.755 4.68C124.755 5.49333 124.508 6.15333 124.015 6.66C123.535 7.15333 122.935 7.48667 122.215 7.66ZM118.115 3.46V6.68H119.335C120.722 6.68 121.415 6.12 121.415 5C121.415 4.44 121.228 4.04667 120.855 3.82C120.482 3.58 119.888 3.46 119.075 3.46H118.115ZM119.315 12.62C120.182 12.62 120.835 12.4933 121.275 12.24C121.728 11.9733 121.955 11.4867 121.955 10.78C121.955 9.5 121.155 8.86 119.555 8.86H118.115V12.62H119.315ZM130.279 11.72C130.772 11.72 131.192 11.9 131.539 12.26C131.899 12.6067 132.079 13.0267 132.079 13.52C132.079 14.0267 131.899 14.46 131.539 14.82C131.192 15.1667 130.772 15.34 130.279 15.34C129.772 15.34 129.339 15.1667 128.979 14.82C128.632 14.46 128.459 14.0267 128.459 13.52C128.459 13.0267 128.632 12.6067 128.979 12.26C129.339 11.9 129.772 11.72 130.279 11.72ZM143.424 15V9.06H139.264V15H135.984V1.14H139.264V6.5H143.424V1.14H146.704V15H143.424ZM159.804 1.14L159.464 3.48H154.584V6.8H158.844V9.1H154.584V12.64H159.804V15H151.304V1.14H159.804ZM173.311 1.14L172.991 3.66H169.571V15H166.291V3.66H162.711V1.14H173.311Z" fill="#222222"/>
</svg>
