<svg width="149" height="14" viewBox="0 0 149 14" fill="none" xmlns="http://www.w3.org/2000/svg">
<path d="M5.996 1.032C6.91333 1.032 7.75067 1.25067 8.508 1.688C9.276 2.11467 9.87867 2.712 10.316 3.48C10.764 4.23733 10.988 5.096 10.988 6.056C10.988 7.016 10.764 7.88 10.316 8.648C9.87867 9.40533 9.276 9.99733 8.508 10.424C7.75067 10.8507 6.91333 11.064 5.996 11.064C5.07867 11.064 4.236 10.8507 3.468 10.424C2.7 9.99733 2.092 9.40533 1.644 8.648C1.196 7.88 0.972 7.016 0.972 6.056C0.972 5.096 1.196 4.23733 1.644 3.48C2.092 2.712 2.7 2.11467 3.468 1.688C4.236 1.25067 5.07867 1.032 5.996 1.032ZM5.996 1.864C5.228 1.864 4.53467 2.04 3.916 2.392C3.308 2.744 2.828 3.24 2.476 3.88C2.124 4.52 1.948 5.24533 1.948 6.056C1.948 6.86667 2.124 7.58667 2.476 8.216C2.828 8.84533 3.308 9.336 3.916 9.688C4.53467 10.04 5.228 10.216 5.996 10.216C6.75333 10.216 7.436 10.04 8.044 9.688C8.66267 9.336 9.148 8.84533 9.5 8.216C9.852 7.58667 10.028 6.86667 10.028 6.056C10.028 5.24533 9.852 4.52 9.5 3.88C9.148 3.24 8.66267 2.744 8.044 2.392C7.436 2.04 6.75333 1.864 5.996 1.864ZM6.028 3C6.412 3 6.748 3.05333 7.036 3.16C7.324 3.26667 7.612 3.42667 7.9 3.64L7.34 4.392C6.93467 4.104 6.51867 3.96 6.092 3.96C5.65467 3.96 5.30267 4.13067 5.036 4.472C4.76933 4.81333 4.636 5.336 4.636 6.04C4.636 6.712 4.764 7.21867 5.02 7.56C5.28667 7.90133 5.644 8.072 6.092 8.072C6.35867 8.072 6.59333 8.03467 6.796 7.96C7.00933 7.87467 7.22267 7.74667 7.436 7.576L7.948 8.344C7.39333 8.83467 6.75867 9.08 6.044 9.08C5.25467 9.08 4.62 8.81333 4.14 8.28C3.66 7.74667 3.42 7 3.42 6.04C3.42 5.4 3.53733 4.85067 3.772 4.392C4.00667 3.93333 4.32133 3.58667 4.716 3.352C5.11067 3.11733 5.548 3 6.028 3ZM20.6555 2.136C21.2955 2.136 21.8555 2.264 22.3355 2.52C22.8262 2.776 23.2048 3.128 23.4715 3.576C23.7382 4.01333 23.8715 4.50933 23.8715 5.064C23.8715 5.71467 23.7222 6.33867 23.4235 6.936C23.1355 7.53333 22.6875 8.17867 22.0795 8.872C21.4715 9.56533 20.5488 10.5307 19.3115 11.768H24.1275L23.9515 13H17.6315V11.832C19.0608 10.3493 20.0742 9.26667 20.6715 8.584C21.2688 7.89067 21.6955 7.288 21.9515 6.776C22.2075 6.264 22.3355 5.71467 22.3355 5.128C22.3355 4.57333 22.1755 4.14133 21.8555 3.832C21.5355 3.512 21.1088 3.352 20.5755 3.352C20.1382 3.352 19.7542 3.44267 19.4235 3.624C19.0928 3.80533 18.7408 4.104 18.3675 4.52L17.4075 3.752C17.8448 3.208 18.3302 2.80267 18.8635 2.536C19.3968 2.26933 19.9942 2.136 20.6555 2.136ZM29.5534 2.136C30.7374 2.136 31.628 2.61067 32.2254 3.56C32.8334 4.49867 33.1374 5.864 33.1374 7.656C33.1374 9.448 32.8334 10.8187 32.2254 11.768C31.628 12.7173 30.7374 13.192 29.5534 13.192C28.3694 13.192 27.4734 12.7173 26.8654 11.768C26.268 10.8187 25.9694 9.448 25.9694 7.656C25.9694 5.864 26.268 4.49867 26.8654 3.56C27.4734 2.61067 28.3694 2.136 29.5534 2.136ZM29.5534 3.304C28.86 3.304 28.3427 3.64533 28.0014 4.328C27.6707 5.01067 27.5054 6.12 27.5054 7.656C27.5054 9.192 27.6707 10.3067 28.0014 11C28.3427 11.6827 28.86 12.024 29.5534 12.024C30.236 12.024 30.748 11.6827 31.0894 11C31.4307 10.3067 31.6014 9.192 31.6014 7.656C31.6014 6.13067 31.4307 5.02667 31.0894 4.344C30.748 3.65067 30.236 3.304 29.5534 3.304ZM38.933 2.296V13H37.461V3.864L34.965 5.384L34.325 4.344L37.637 2.296H38.933ZM44.9909 2.136C46.1215 2.136 46.9802 2.50933 47.5669 3.256C48.1535 3.992 48.4469 5.00533 48.4469 6.296C48.4469 7.75733 48.2495 8.936 47.8549 9.832C47.4602 10.7173 46.8575 11.4267 46.0469 11.96C45.2362 12.4827 44.1375 12.9467 42.7509 13.352L42.4149 12.248C43.8442 11.8427 44.9375 11.2933 45.6949 10.6C46.4629 9.90667 46.8735 8.984 46.9269 7.832C46.6815 8.216 46.3509 8.52533 45.9349 8.76C45.5189 8.99467 45.0495 9.112 44.5269 9.112C43.9722 9.112 43.4709 8.97333 43.0229 8.696C42.5749 8.408 42.2175 8.008 41.9509 7.496C41.6949 6.97333 41.5669 6.36533 41.5669 5.672C41.5669 4.94667 41.7215 4.31733 42.0309 3.784C42.3402 3.25067 42.7509 2.84533 43.2629 2.568C43.7855 2.28 44.3615 2.136 44.9909 2.136ZM44.8309 7.96C45.6735 7.96 46.3829 7.51733 46.9589 6.632C46.9802 5.448 46.8309 4.6 46.5109 4.088C46.2015 3.56533 45.7055 3.304 45.0229 3.304C44.3935 3.304 43.9082 3.512 43.5669 3.928C43.2255 4.344 43.0549 4.936 43.0549 5.704C43.0549 6.45067 43.2149 7.016 43.5349 7.4C43.8549 7.77333 44.2869 7.96 44.8309 7.96ZM58.6395 8.328H56.9275V13H55.4075V1.976H58.3035C59.6795 1.976 60.7195 2.23733 61.4235 2.76C62.1382 3.28267 62.4955 4.06133 62.4955 5.096C62.4955 5.864 62.2982 6.488 61.9035 6.968C61.5088 7.448 60.9115 7.81067 60.1115 8.056L63.0875 13H61.2795L58.6395 8.328ZM58.4635 7.16C59.2635 7.16 59.8662 7 60.2715 6.68C60.6768 6.34933 60.8795 5.82133 60.8795 5.096C60.8795 4.41333 60.6715 3.92267 60.2555 3.624C59.8502 3.31467 59.1942 3.16 58.2875 3.16H56.9275V7.16H58.4635ZM66.647 4.568V13H65.175V4.568H66.647ZM65.895 0.52C66.2043 0.52 66.455 0.616 66.647 0.808C66.839 1 66.935 1.24 66.935 1.528C66.935 1.816 66.839 2.056 66.647 2.248C66.455 2.42933 66.2043 2.52 65.895 2.52C65.5963 2.52 65.351 2.42933 65.159 2.248C64.967 2.056 64.871 1.816 64.871 1.528C64.871 1.24 64.967 1 65.159 0.808C65.351 0.616 65.5963 0.52 65.895 0.52ZM76.2186 8.536C76.2186 8.78133 76.208 9.032 76.1866 9.288H70.8106C70.8746 10.216 71.1093 10.8987 71.5146 11.336C71.92 11.7733 72.4426 11.992 73.0826 11.992C73.488 11.992 73.8613 11.9333 74.2026 11.816C74.544 11.6987 74.9013 11.512 75.2746 11.256L75.9146 12.136C75.0186 12.84 74.0373 13.192 72.9706 13.192C71.7973 13.192 70.88 12.808 70.2186 12.04C69.568 11.272 69.2426 10.216 69.2426 8.872C69.2426 7.99733 69.3813 7.224 69.6586 6.552C69.9466 5.86933 70.352 5.336 70.8746 4.952C71.408 4.568 72.032 4.376 72.7466 4.376C73.8666 4.376 74.7253 4.744 75.3226 5.48C75.92 6.216 76.2186 7.23467 76.2186 8.536ZM74.7626 8.104C74.7626 7.272 74.5973 6.63733 74.2666 6.2C73.936 5.76267 73.44 5.544 72.7786 5.544C71.5733 5.544 70.9173 6.42933 70.8106 8.2H74.7626V8.104ZM80.4094 13.192C79.8654 13.192 79.4334 13.032 79.1134 12.712C78.804 12.3813 78.6494 11.9227 78.6494 11.336V1.176L80.1214 0.999999V11.304C80.1214 11.5387 80.1587 11.7093 80.2334 11.816C80.3187 11.9227 80.4574 11.976 80.6494 11.976C80.852 11.976 81.0334 11.944 81.1934 11.88L81.5774 12.904C81.2254 13.096 80.836 13.192 80.4094 13.192ZM87.8329 12.616C87.2782 13 86.6489 13.192 85.9449 13.192C85.2302 13.192 84.6702 12.9893 84.2649 12.584C83.8702 12.168 83.6729 11.5707 83.6729 10.792V5.704H82.2009V4.568H83.6729V2.664L85.1449 2.488V4.568H87.1449L86.9849 5.704H85.1449V10.728C85.1449 11.1653 85.2195 11.4853 85.3689 11.688C85.5289 11.88 85.7902 11.976 86.1529 11.976C86.4835 11.976 86.8569 11.864 87.2729 11.64L87.8329 12.616ZM92.4517 4.376C93.6357 4.376 94.5531 4.77067 95.2037 5.56C95.8651 6.34933 96.1957 7.42133 96.1957 8.776C96.1957 9.65067 96.0464 10.424 95.7477 11.096C95.4491 11.7573 95.0171 12.2747 94.4517 12.648C93.8864 13.0107 93.2144 13.192 92.4357 13.192C91.2517 13.192 90.3291 12.7973 89.6677 12.008C89.0064 11.2187 88.6757 10.1467 88.6757 8.792C88.6757 7.91733 88.8251 7.14933 89.1237 6.488C89.4224 5.816 89.8544 5.29867 90.4197 4.936C90.9851 4.56267 91.6624 4.376 92.4517 4.376ZM92.4517 5.56C90.9904 5.56 90.2597 6.63733 90.2597 8.792C90.2597 10.936 90.9851 12.008 92.4357 12.008C93.8864 12.008 94.6117 10.9307 94.6117 8.776C94.6117 6.632 93.8917 5.56 92.4517 5.56ZM102.452 4.376C102.75 4.376 103.028 4.408 103.284 4.472L103.012 5.912C102.756 5.848 102.51 5.816 102.276 5.816C101.753 5.816 101.332 6.008 101.012 6.392C100.692 6.776 100.441 7.37333 100.26 8.184V13H98.7875V4.568H100.052L100.196 6.28C100.42 5.65067 100.724 5.176 101.108 4.856C101.492 4.536 101.94 4.376 102.452 4.376ZM107.803 4.376C108.987 4.376 109.904 4.77067 110.555 5.56C111.216 6.34933 111.547 7.42133 111.547 8.776C111.547 9.65067 111.398 10.424 111.099 11.096C110.8 11.7573 110.368 12.2747 109.803 12.648C109.238 13.0107 108.566 13.192 107.787 13.192C106.603 13.192 105.68 12.7973 105.019 12.008C104.358 11.2187 104.027 10.1467 104.027 8.792C104.027 7.91733 104.176 7.14933 104.475 6.488C104.774 5.816 105.206 5.29867 105.771 4.936C106.336 4.56267 107.014 4.376 107.803 4.376ZM107.803 5.56C106.342 5.56 105.611 6.63733 105.611 8.792C105.611 10.936 106.336 12.008 107.787 12.008C109.238 12.008 109.963 10.9307 109.963 8.776C109.963 6.632 109.243 5.56 107.803 5.56ZM120.268 4.568L117.404 13H115.628L112.716 4.568H114.316L116.524 11.688L118.716 4.568H120.268ZM121.855 10.968C122.175 10.968 122.441 11.0747 122.655 11.288C122.868 11.5013 122.975 11.7627 122.975 12.072C122.975 12.3813 122.868 12.648 122.655 12.872C122.441 13.0853 122.175 13.192 121.855 13.192C121.545 13.192 121.284 13.0853 121.071 12.872C120.857 12.648 120.751 12.3813 120.751 12.072C120.751 11.7627 120.857 11.5013 121.071 11.288C121.284 11.0747 121.545 10.968 121.855 10.968ZM129.442 4.376C130.21 4.376 130.808 4.60533 131.234 5.064C131.672 5.52267 131.89 6.152 131.89 6.952V13H130.418V7.16C130.418 6.56267 130.306 6.14133 130.082 5.896C129.858 5.65067 129.528 5.528 129.09 5.528C128.642 5.528 128.248 5.656 127.906 5.912C127.565 6.168 127.245 6.536 126.946 7.016V13H125.474V4.568H126.738L126.866 5.816C127.165 5.368 127.533 5.016 127.97 4.76C128.418 4.504 128.909 4.376 129.442 4.376ZM141.377 8.536C141.377 8.78133 141.367 9.032 141.345 9.288H135.969C136.033 10.216 136.268 10.8987 136.673 11.336C137.079 11.7733 137.601 11.992 138.241 11.992C138.647 11.992 139.02 11.9333 139.361 11.816C139.703 11.6987 140.06 11.512 140.433 11.256L141.073 12.136C140.177 12.84 139.196 13.192 138.129 13.192C136.956 13.192 136.039 12.808 135.377 12.04C134.727 11.272 134.401 10.216 134.401 8.872C134.401 7.99733 134.54 7.224 134.817 6.552C135.105 5.86933 135.511 5.336 136.033 4.952C136.567 4.568 137.191 4.376 137.905 4.376C139.025 4.376 139.884 4.744 140.481 5.48C141.079 6.216 141.377 7.23467 141.377 8.536ZM139.921 8.104C139.921 7.272 139.756 6.63733 139.425 6.2C139.095 5.76267 138.599 5.544 137.937 5.544C136.732 5.544 136.076 6.42933 135.969 8.2H139.921V8.104ZM148.144 12.616C147.589 13 146.96 13.192 146.256 13.192C145.541 13.192 144.981 12.9893 144.576 12.584C144.181 12.168 143.984 11.5707 143.984 10.792V5.704H142.512V4.568H143.984V2.664L145.456 2.488V4.568H147.456L147.296 5.704H145.456V10.728C145.456 11.1653 145.531 11.4853 145.68 11.688C145.84 11.88 146.101 11.976 146.464 11.976C146.795 11.976 147.168 11.864 147.584 11.64L148.144 12.616Z" fill="white"/>
</svg>
