<svg width="30" height="60" viewBox="0 0 30 60" fill="none" xmlns="http://www.w3.org/2000/svg">
<path fill-rule="evenodd" clip-rule="evenodd" d="M9 30C9 31.1046 8.10457 32 7 32C5.89543 32 5 31.1046 5 30C5 28.8954 5.89543 28 7 28C8.10457 28 9 28.8954 9 30ZM17 30C17 31.1046 16.1046 32 15 32C13.8954 32 13 31.1046 13 30C13 28.8954 13.8954 28 15 28C16.1046 28 17 28.8954 17 30ZM23 32C24.1046 32 25 31.1046 25 30C25 28.8954 24.1046 28 23 28C21.8954 28 21 28.8954 21 30C21 31.1046 21.8954 32 23 32Z" fill="#669A4D"/>
</svg>
