<svg width="20" height="18" viewBox="0 0 20 18" fill="none" xmlns="http://www.w3.org/2000/svg">
<mask id="path-1-inside-1" fill="white">
<path fill-rule="evenodd" clip-rule="evenodd" d="M10 18C8.33333 17.1818 0 10.7099 0 5.31818C0 2.38103 2.42512 0 5.41667 0C7.34647 0 9.04057 0.990836 10 2.48262C10.9594 0.990836 12.6535 0 14.5833 0C17.5749 0 20 2.38103 20 5.31818C20 10.7099 11.6667 17.1818 10 18Z"/>
</mask>
<path d="M10 18L9.33899 19.3465L10 19.671L10.661 19.3465L10 18ZM10 2.48262L8.7384 3.29401L10 5.25564L11.2616 3.29401L10 2.48262ZM10.661 16.6535C10.3969 16.5239 9.66835 16.0514 8.66686 15.2566C7.69647 14.4864 6.55053 13.4777 5.45861 12.337C4.36243 11.1917 3.35141 9.94522 2.62231 8.70094C1.88483 7.44234 1.5 6.29516 1.5 5.31818H-1.5C-1.5 7.03706 -0.843163 8.72075 0.0339362 10.2176C0.919427 11.7288 2.0959 13.1624 3.29139 14.4114C4.49114 15.6648 5.74103 16.7645 6.80189 17.6064C7.83165 18.4237 8.76972 19.067 9.33899 19.3465L10.661 16.6535ZM1.5 5.31818C1.5 3.23529 3.22748 1.5 5.41667 1.5V-1.5C1.62276 -1.5 -1.5 1.52678 -1.5 5.31818H1.5ZM5.41667 1.5C6.82312 1.5 8.04785 2.22031 8.7384 3.29401L11.2616 1.67123C10.0333 -0.238639 7.86982 -1.5 5.41667 -1.5V1.5ZM14.5833 -1.5C12.1302 -1.5 9.96671 -0.238638 8.7384 1.67123L11.2616 3.29401C11.9521 2.22031 13.1769 1.5 14.5833 1.5V-1.5ZM21.5 5.31818C21.5 1.52678 18.3772 -1.5 14.5833 -1.5V1.5C16.7725 1.5 18.5 3.23529 18.5 5.31818H21.5ZM10.661 19.3465C11.2303 19.067 12.1683 18.4237 13.1981 17.6064C14.259 16.7645 15.5089 15.6648 16.7086 14.4114C17.9041 13.1624 19.0806 11.7288 19.9661 10.2176C20.8432 8.72075 21.5 7.03706 21.5 5.31818H18.5C18.5 6.29516 18.1152 7.44234 17.3777 8.70094C16.6486 9.94522 15.6376 11.1917 14.5414 12.337C13.4495 13.4777 12.3035 14.4864 11.3331 15.2566C10.3317 16.0514 9.60305 16.5239 9.33899 16.6535L10.661 19.3465Z" fill="black" fill-opacity="0.3" mask="url(#path-1-inside-1)"/>
</svg>
